<svg width="24" height="" viewBox="0 0 24 24" focusable="false" class="Q6yead QJZfhe OojVPc"><path d="M12.95 21.0Q11.25 21.0 9.6375 20.3625Q8.025 19.725 6.7 18.4L8.1 17.0Q9.125 17.975 10.4 18.4875Q11.675 19.0 13.0 19.0Q15.9 19.0 17.95 16.95Q20.0 14.9 20.0 12.0Q20.0 9.1 17.95 7.05Q15.9 5.0 13.0 5.0Q10.125 5.0 8.0625 7.0125Q6.0 9.025 6.0 12.2L7.85 10.35L9.25 11.75L5.0 16.0L0.75 11.75L2.2 10.35L4.0 12.2Q4.0 10.25 4.7 8.5625Q5.4 6.875 6.625 5.6375Q7.85 4.4 9.4875 3.7Q11.125 3.0 13.0 3.0Q14.85 3.0 16.4875 3.7125Q18.125 4.425 19.35 5.65Q20.575 6.875 21.2875 8.5125Q22.0 10.15 22.0 12.0Q22.0 13.85 21.2875 15.4875Q20.575 17.125 19.35 18.35Q18.125 19.575 16.475 20.2875Q14.825 21.0 12.95 21.0ZM15.8 16.2 12.0 12.4V7.0H14.0V11.6L17.2 14.8Z"></path></svg>